<svg width="31" height="32" viewBox="0 0 31 32" fill="none" xmlns="http://www.w3.org/2000/svg">
<path d="M15.3308 0.757812C6.8896 0.757812 0.0898438 7.55757 0.0898438 15.9988C0.0898438 24.44 6.8896 31.2397 15.3308 31.2397C23.7713 31.2397 30.5718 24.44 30.5718 15.9988C30.5718 7.55757 23.7713 0.757812 15.3308 0.757812Z" fill="white"/>
<path opacity="0.05" d="M13.2167 9.85385C17.4491 9.85385 21.904 10.7454 25.2456 12.6384C25.6907 12.8616 26.0244 13.3067 26.0244 13.975C25.9139 14.7546 25.3561 15.3124 24.5773 15.3124C24.2435 15.3124 24.1315 15.2011 23.7977 15.0906C21.1245 13.5307 17.1153 12.6391 13.2167 12.6391C11.2117 12.6391 9.2068 12.8624 7.42513 13.3074C7.20185 13.3074 6.97933 13.4187 6.64556 13.4187C6.5884 13.4271 6.53201 13.4309 6.47714 13.4309C5.78749 13.4309 5.30892 12.8053 5.30892 12.0821C5.30892 11.3025 5.75472 10.8575 6.31102 10.7454C8.42722 10.0771 10.6547 9.85385 13.2167 9.85385ZM12.8822 14.7546C16.6695 14.7546 20.3449 15.6462 23.2407 17.4271C23.6857 17.6488 23.909 18.0954 23.909 18.5404C23.909 19.2095 23.4632 19.7658 22.7949 19.7658C22.4611 19.7658 22.2386 19.6561 22.0153 19.544C19.6773 18.0962 16.4463 17.2038 12.7717 17.2038C10.9892 17.2038 9.31882 17.4271 8.09345 17.7624C7.75891 17.8721 7.64765 17.8721 7.42513 17.8721C6.75681 17.8721 6.31102 17.3158 6.31102 16.7588C6.31102 16.0904 6.64556 15.7559 7.20185 15.5342C8.87226 15.0891 10.5434 14.7546 12.8822 14.7546ZM13.2159 19.544C16.335 19.544 19.2308 20.3221 21.6808 21.7723C22.0145 21.994 22.2378 22.2173 22.2378 22.7736C22.1266 23.2202 21.6808 23.5532 21.2357 23.5532C21.0132 23.5532 20.7899 23.4427 20.5674 23.3307C18.4512 22.1061 15.8892 21.4377 13.1054 21.4377C11.5455 21.4377 9.98637 21.6595 8.53848 21.994C8.31596 21.994 7.98143 22.1053 7.87017 22.1053C7.31311 22.1053 6.97933 21.6587 6.97933 21.2137C6.97933 20.6574 7.31311 20.3221 7.75891 20.2124C9.54058 19.7658 11.323 19.544 13.2159 19.544ZM13.2167 9.0918C10.3293 9.0918 8.13688 9.37452 6.11669 10.0078C5.16109 10.2204 4.54688 11.0297 4.54688 12.0821C4.54688 13.2655 5.39427 14.1929 6.47714 14.1929C6.54954 14.1929 6.62346 14.1891 6.6989 14.18C6.94199 14.1747 7.13631 14.1305 7.2811 14.0985C7.33292 14.087 7.38017 14.0718 7.42818 14.0695H7.52191L7.61031 14.0466C9.30129 13.6245 11.2399 13.4012 13.2175 13.4012C17.0833 13.4012 20.8951 14.2791 23.4144 15.749L23.483 15.7894L23.5585 15.8146C23.6415 15.842 23.7071 15.8702 23.7665 15.8946C23.9578 15.9746 24.1955 16.0744 24.5781 16.0744C25.7082 16.0744 26.6135 15.2552 26.7796 14.0817L26.7873 14.0283V13.9742C26.7873 13.0819 26.3575 12.3511 25.6068 11.9662C22.3719 10.1396 17.8576 9.0918 13.2167 9.0918ZM12.8822 13.9925C10.3743 13.9925 8.57582 14.3796 7.006 14.798L6.96181 14.8094L6.91989 14.8262C6.01001 15.1889 5.54897 15.839 5.54897 16.7588C5.54897 17.7929 6.39027 18.6342 7.42513 18.6342C7.70785 18.6342 7.90217 18.6273 8.33121 18.4863C9.52915 18.1594 11.1615 17.9658 12.7717 17.9658C16.1559 17.9658 19.2963 18.7561 21.6137 20.1918L21.6427 20.2101L21.6731 20.2253C21.9277 20.3533 22.2767 20.5279 22.7941 20.5279C23.864 20.5279 24.6703 19.6736 24.6703 18.5404C24.6703 17.7814 24.2664 17.1032 23.6133 16.7618C20.697 14.9756 16.8867 13.9925 12.8822 13.9925ZM13.2159 18.782C11.275 18.782 9.42932 19.0083 7.57373 19.4732C6.73853 19.6789 6.21728 20.3457 6.21728 21.2137C6.21728 22.1411 6.94352 22.8673 7.87017 22.8673C8.00124 22.8673 8.12469 22.8391 8.26796 22.8071C8.34492 22.7896 8.48743 22.7576 8.54001 22.7561L8.61697 22.7538L8.70994 22.7363C10.2516 22.3804 11.7299 22.1998 13.1054 22.1998C15.7132 22.1998 18.1616 22.8186 20.1856 23.9906L20.2047 24.002L20.2245 24.0119C20.479 24.14 20.828 24.316 21.2357 24.316C22.0359 24.316 22.7842 23.7323 22.977 22.9588L22.9999 22.8681V22.7744C22.9999 21.8584 22.5465 21.4332 22.1022 21.1383L22.0854 21.1276L22.0686 21.1177C19.4891 19.589 16.4272 18.782 13.2159 18.782Z" fill="black"/>
<path opacity="0.07" d="M13.2185 9.85368C17.4509 9.85368 21.9058 10.7453 25.2474 12.6382C25.6925 12.8615 26.0262 13.3065 26.0262 13.9748C25.9157 14.7544 25.3579 15.3122 24.5791 15.3122C24.2453 15.3122 24.1333 15.201 23.7995 15.0905C21.1263 13.5306 17.1171 12.639 13.2185 12.639C11.2135 12.639 9.20859 12.8622 7.42692 13.3073C7.20364 13.3073 6.98112 13.4185 6.64734 13.4185C6.59019 13.4269 6.5338 13.4307 6.47893 13.4307C5.78928 13.4307 5.31071 12.8051 5.31071 12.0819C5.31071 11.3023 5.75651 10.8573 6.3128 10.7453C8.42901 10.077 10.6565 9.85368 13.2185 9.85368ZM12.8839 14.7544C16.6713 14.7544 20.3467 15.646 23.2425 17.4269C23.6875 17.6487 23.9108 18.0952 23.9108 18.5403C23.9108 19.2093 23.465 19.7656 22.7967 19.7656C22.4629 19.7656 22.2404 19.6559 22.0171 19.5439C19.6791 18.096 16.448 17.2036 12.7734 17.2036C10.991 17.2036 9.32061 17.4269 8.09524 17.7622C7.7607 17.872 7.64944 17.872 7.42692 17.872C6.7586 17.872 6.3128 17.3157 6.3128 16.7586C6.3128 16.0903 6.64734 15.7557 7.20364 15.534C8.87405 15.089 10.5452 14.7544 12.8839 14.7544ZM13.2177 19.5439C16.3368 19.5439 19.2326 20.3219 21.6826 21.7721C22.0163 21.9939 22.2396 22.2171 22.2396 22.7734C22.1284 23.22 21.6826 23.553 21.2375 23.553C21.015 23.553 20.7917 23.4425 20.5692 23.3305C18.453 22.1059 15.891 21.4376 13.1072 21.4376C11.5473 21.4376 9.98816 21.6593 8.54027 21.9939C8.31775 21.9939 7.98321 22.1051 7.87196 22.1051C7.3149 22.1051 6.98112 21.6586 6.98112 21.2135C6.98112 20.6572 7.3149 20.3219 7.7607 20.2122C9.54237 19.7656 11.3248 19.5439 13.2177 19.5439ZM13.2185 9.47266C10.3631 9.47266 8.20268 9.75157 6.21679 10.3764C5.42273 10.5456 4.92969 11.1979 4.92969 12.0819C4.92969 13.052 5.6102 13.8118 6.47893 13.8118C6.54294 13.8118 6.60772 13.8079 6.67478 13.7996C6.88815 13.7965 7.06037 13.7577 7.19983 13.7264C7.29051 13.7058 7.369 13.6883 7.42768 13.6883H7.47417L7.51989 13.6769C9.24059 13.2471 11.2113 13.02 13.2192 13.02C17.1499 13.02 21.0333 13.9169 23.6083 15.4197L23.6425 15.4395L23.6806 15.4517C23.7744 15.4829 23.8491 15.5142 23.9161 15.5424C24.0922 15.6163 24.2743 15.6925 24.5799 15.6925C25.5301 15.6925 26.2632 15.0234 26.4042 14.0274L26.408 14.0007V13.9741C26.408 13.2235 26.0476 12.6123 25.4189 12.2968C22.2556 10.506 17.803 9.47266 13.2185 9.47266ZM12.8839 14.3734C10.5567 14.3734 8.89081 14.6904 7.10533 15.1659L7.08324 15.172L7.0619 15.1804C6.57647 15.374 5.93102 15.7481 5.93102 16.7586C5.93102 17.4772 6.50256 18.253 7.42616 18.253C7.68525 18.253 7.83843 18.2469 8.21335 18.1242C9.46083 17.7836 11.1297 17.5847 12.7727 17.5847C16.2271 17.5847 19.4383 18.3955 21.8159 19.8678C22.0788 20.0011 22.3684 20.1467 22.7959 20.1467C23.6486 20.1467 24.291 19.4562 24.291 18.5403C24.291 17.9131 23.9542 17.356 23.4116 17.0855C20.5806 15.3427 16.8314 14.3734 12.8839 14.3734ZM13.2177 19.1629C11.308 19.1629 9.49283 19.3854 7.66773 19.8426C7.00932 20.0049 6.6001 20.53 6.6001 21.2135C6.6001 21.8392 7.07562 22.4862 7.87196 22.4862C7.96035 22.4862 8.05942 22.4641 8.18516 22.4351C8.29794 22.41 8.45264 22.3749 8.54027 22.3749H8.58371L8.62638 22.365C10.1962 22.0023 11.7035 21.8186 13.1072 21.8186C15.782 21.8186 18.296 22.4557 20.3787 23.6605C20.6309 23.7885 20.9213 23.934 21.2375 23.934C21.8677 23.934 22.4576 23.4745 22.6092 22.8657L22.6206 22.8199V22.7734C22.6206 22.0023 22.2449 21.6883 21.8936 21.4551C19.3553 19.9516 16.3612 19.1629 13.2177 19.1629Z" fill="black"/>
<path d="M21.2354 23.5529C21.0129 23.5529 20.7896 23.4424 20.5671 23.3303C18.4509 22.1057 15.8889 21.4374 13.1051 21.4374C11.5452 21.4374 9.98604 21.6592 8.53815 21.9937C8.31564 21.9937 7.9811 22.105 7.86984 22.105C7.31278 22.105 6.979 21.6584 6.979 21.2134C6.979 20.6571 7.31278 20.3218 7.75858 20.212C9.54025 19.7655 11.3227 19.5437 13.2156 19.5437C16.3347 19.5437 19.2305 20.3218 21.6804 21.7719C22.0142 21.9937 22.2375 22.217 22.2375 22.7733C22.1262 23.2198 21.6804 23.5529 21.2354 23.5529ZM22.7945 19.7655C22.4608 19.7655 22.2383 19.6557 22.015 19.5437C19.677 18.0958 16.4459 17.2035 12.7713 17.2035C10.9889 17.2035 9.31849 17.4268 8.09312 17.7621C7.75858 17.8718 7.64732 17.8718 7.4248 17.8718C6.75648 17.8718 6.31069 17.3155 6.31069 16.7584C6.31069 16.0901 6.64523 15.7556 7.20152 15.5338C8.87193 15.0888 10.5431 14.7542 12.8818 14.7542C16.6692 14.7542 20.3446 15.6458 23.2403 17.4268C23.6854 17.6485 23.9087 18.0951 23.9087 18.5401C23.9087 19.2092 23.4629 19.7655 22.7945 19.7655ZM24.577 15.3121C24.2432 15.3121 24.1312 15.2008 23.7974 15.0903C21.1241 13.5304 17.115 12.6388 13.2164 12.6388C11.2114 12.6388 9.20647 12.8621 7.4248 13.3071C7.20152 13.3071 6.979 13.4184 6.64523 13.4184C5.86565 13.5296 5.30859 12.8621 5.30859 12.0817C5.30859 11.3022 5.75439 10.8571 6.31069 10.7451C8.42689 10.0768 10.6544 9.85352 13.2164 9.85352C17.4488 9.85352 21.9037 10.7451 25.2453 12.638C25.6903 12.8613 26.0241 13.3064 26.0241 13.9747C25.9136 14.7542 25.3558 15.3121 24.577 15.3121Z" fill="#0C0F15"/>
</svg>
