<svg width="31" height="32" viewBox="0 0 31 32" fill="none" xmlns="http://www.w3.org/2000/svg">
<path d="M15.3308 0.966797C6.8896 0.966797 0.0898438 7.76655 0.0898438 16.2078C0.0898438 24.649 6.8896 31.4487 15.3308 31.4487C23.7713 31.4487 30.5718 24.649 30.5718 16.2078C30.5718 7.76655 23.7713 0.966797 15.3308 0.966797Z" fill="white"/>
<path fill-rule="evenodd" clip-rule="evenodd" d="M20.4213 12.8016C21.877 13.8417 23.6607 14.4532 25.5866 14.4532V10.7482C25.2217 10.7482 24.8587 10.7104 24.5022 10.6346V13.5507C22.5763 13.5507 20.7935 12.9383 19.3369 11.8992V19.4587C19.3369 23.2403 16.2693 26.306 12.4858 26.306C11.0744 26.306 9.76183 25.8793 8.67188 25.1477C9.91609 26.4187 11.6508 27.2075 13.5702 27.2075C17.3537 27.2075 20.4213 24.1418 20.4213 20.3602V12.8016ZM21.7597 9.06433C21.0161 8.25241 20.5275 7.20216 20.4213 6.04108V5.56445H19.3932C19.6518 7.03959 20.5349 8.30044 21.7597 9.06433ZM11.0652 22.2464C10.6495 21.7014 10.425 21.0354 10.426 20.35C10.426 18.62 11.8291 17.2178 13.5601 17.2178C13.8824 17.2178 14.203 17.2667 14.5105 17.3647V13.5775C14.1512 13.5285 13.7891 13.5073 13.4261 13.5147V16.4622C13.1185 16.3643 12.798 16.3153 12.4747 16.3153C10.7437 16.3153 9.34063 17.7175 9.34063 19.4476C9.34155 20.6715 10.0426 21.731 11.0652 22.2464Z" fill="#EC407A"/>
<path fill-rule="evenodd" clip-rule="evenodd" d="M19.3346 11.8992C20.7903 12.9392 22.574 13.5507 24.4999 13.5507V10.6346C23.4247 10.4055 22.4733 9.84393 21.7574 9.06341C20.5326 8.29951 19.6505 7.03959 19.3918 5.56445H16.6919V20.3602C16.6854 22.0847 15.2851 23.4814 13.5578 23.4814C12.5399 23.4814 11.6356 22.9964 11.0629 22.2455C10.0404 21.73 9.33927 20.6706 9.33927 19.4476C9.33927 17.7175 10.7424 16.3153 12.4734 16.3153C12.805 16.3153 13.1246 16.3671 13.4248 16.4622V13.5156C9.70783 13.5923 6.71875 16.6275 6.71875 20.3611C6.71875 22.2251 7.46325 23.9146 8.67144 25.1486C9.7614 25.8802 11.074 26.3069 12.4854 26.3069C16.2688 26.3069 19.3364 23.2412 19.3364 19.4596L19.3346 11.8992Z" fill="#0C0F15"/>
<path fill-rule="evenodd" clip-rule="evenodd" d="M24.5002 10.6356V9.84681C23.5303 9.84866 22.5808 9.57709 21.7578 9.06351C22.4856 9.86066 23.4444 10.4103 24.5002 10.6356ZM19.3912 5.56456C19.3663 5.42323 19.3478 5.28191 19.3349 5.13874V4.66211H15.6069V19.4588C15.6013 21.1833 14.2001 22.5799 12.4728 22.5799C11.9657 22.5799 11.4872 22.4599 11.0632 22.2456C11.6359 22.9965 12.5402 23.4815 13.5581 23.4815C15.2854 23.4815 16.6857 22.0848 16.6922 20.3603V5.56456H19.3912ZM13.4242 13.5157V12.6761C13.1129 12.6336 12.7988 12.6124 12.4839 12.6124C8.69948 12.6124 5.63281 15.6781 5.63281 19.4597C5.63281 21.8308 6.83824 23.9202 8.66992 25.1487C7.46173 23.9147 6.71723 22.2252 6.71723 20.3612C6.71723 16.6277 9.70723 13.5924 13.4242 13.5157Z" fill="#81D4FA"/>
</svg>
